<?xml version="1.0" encoding="UTF-8"?>
<!-- Generator: Adobe Illustrator 20.0.0, SVG Export Plug-In . SVG Version: 6.00 Build 0)  -->
<svg version="1.1" id="Layer_1" xmlns="http://www.w3.org/2000/svg" xmlns:xlink="http://www.w3.org/1999/xlink" x="0px" y="0px" viewBox="0 0 64 64" style="enable-background:new 0 0 64 64;" xml:space="preserve">
<style type="text/css">
	.st0{fill:#333333;}
	.st1{fill:#FAA31B;}
	.st2{fill:#FBAE17;}
	.st3{fill-rule:evenodd;clip-rule:evenodd;fill:#333333;}
</style>
<g>
	<path class="st0" d="M40.4,63.8c-5.1,0-9.3-4.2-9.4-9.6l0-9c0-0.6,0.4-1,1-1l0,0c0.6,0,1,0.4,1,1l0,9c0.1,4.3,3.4,7.7,7.4,7.7   c3,0,5.7-1.9,6.9-4.9c0.2-0.5,0.8-0.8,1.3-0.6c0.8,0.3,1.6,0.4,2.4,0.4c4.1,0,7.4-3.5,7.4-7.9c0-1.8-0.6-3.5-1.6-4.9   c-0.2-0.2-0.2-0.5-0.2-0.8s0.3-0.5,0.5-0.7c2.6-1.3,4.2-4.1,4.2-7.1c0-3-1.7-5.8-4.2-7.1c-0.3-0.1-0.5-0.4-0.5-0.7   c-0.1-0.3,0-0.6,0.2-0.8c1.1-1.4,1.7-3.1,1.7-5c0-4.3-3.3-7.9-7.4-7.9c-0.8,0-1.6,0.1-2.4,0.4c-0.5,0.2-1.1-0.1-1.3-0.6   c-1.2-2.9-3.8-4.8-6.8-4.8c-3.9,0-7.2,3.3-7.4,7.4l0,12.6c0,0.6-0.4,1-1,1l0,0c-0.6,0-1-0.4-1-1l0-12.6c0.3-5.3,4.4-9.4,9.4-9.4   c3.5,0,6.7,2,8.3,5.3c0.7-0.2,1.4-0.3,2.2-0.3c5.2,0,9.4,4.4,9.4,9.9c0,1.9-0.5,3.7-1.4,5.2c2.7,1.8,4.3,5,4.3,8.3   c0,3.4-1.6,6.5-4.3,8.3c0.9,1.5,1.4,3.3,1.4,5.2c0,5.5-4.2,9.9-9.4,9.9c-0.7,0-1.4-0.1-2.1-0.3C47.2,61.7,44,63.8,40.4,63.8z"/>
	<path class="st0" d="M53.6,31.6c-0.3,0-0.7-0.2-0.9-0.5c-0.3-0.5-0.1-1.1,0.4-1.4c1.7-1,3.6-3.1,3.6-3.1c0.4-0.4,1-0.4,1.4-0.1   c0.4,0.4,0.4,1,0.1,1.4c-0.1,0.1-2.2,2.4-4.1,3.5C54,31.6,53.8,31.6,53.6,31.6z"/>
	<path class="st0" d="M48.2,58.2c-0.1,0-0.3,0-0.4-0.1c-0.1-0.1-2.9-1.3-4.5-2.8c-0.4-0.4-0.4-1-0.1-1.4c0.4-0.4,1-0.4,1.4-0.1   c1.4,1.3,4,2.5,4,2.5c0.5,0.2,0.7,0.8,0.5,1.3C49,58,48.6,58.2,48.2,58.2z"/>
	<path class="st0" d="M36.8,51.5h-4.3c-0.6,0-1-0.4-1-1s0.4-1,1-1h4.3c1.1,0,2.2-0.4,3.1-1.2c1-0.8,1.4-1.8,1.4-3.2c0-0.6,0.4-1,1-1   s1,0.4,1,1c0,2-0.7,3.6-2.1,4.8C39.9,50.9,38.4,51.5,36.8,51.5z"/>
	<path class="st0" d="M58,44.5h-4.4c-1.2,0-2.4-0.4-3.3-1.2c-0.9-0.8-1.3-1.9-1.3-3.6c0-0.6,0.4-1,1-1s1,0.4,1,1   c0,1.3,0.3,1.8,0.6,2c0.6,0.5,1.3,0.7,2,0.7H58c0.6,0,1,0.4,1,1S58.6,44.5,58,44.5z"/>
	<path class="st0" d="M43.3,26.1c-0.6,0-1-0.4-1-1s0.4-1,1-1c1.5,0,2.5-0.9,3.1-1.7c0.6-0.8,0.9-1.9,0.9-3.4v-5.5c0-0.6,0.4-1,1-1   s1,0.4,1,1V19c0,1.9-0.4,3.4-1.3,4.6C46.8,25.2,45.1,26.1,43.3,26.1z"/>
	<g>
		<circle class="st1" cx="41.6" cy="26.7" r="2.3"/>
		<path class="st0" d="M41.6,24.4c1.3,0,2.3,1,2.3,2.3s-1,2.3-2.3,2.3c-1.3,0-2.3-1-2.3-2.3S40.3,24.4,41.6,24.4 M41.6,22.6    c-2.3,0-4.1,1.8-4.1,4.1s1.8,4.1,4.1,4.1s4.1-1.8,4.1-4.1S43.9,22.6,41.6,22.6L41.6,22.6z"/>
	</g>
	<g>
		<circle class="st1" cx="41.6" cy="43.8" r="2.3"/>
		<path class="st0" d="M41.6,41.5c1.3,0,2.3,1,2.3,2.3s-1,2.3-2.3,2.3c-1.3,0-2.3-1-2.3-2.3S40.3,41.5,41.6,41.5 M41.6,39.7    c-2.3,0-4.1,1.8-4.1,4.1s1.8,4.1,4.1,4.1s4.1-1.8,4.1-4.1S43.9,39.7,41.6,39.7L41.6,39.7z"/>
	</g>
	<g>
		<circle class="st1" cx="50.1" cy="36.6" r="2.3"/>
		<path class="st0" d="M50.1,34.3c1.3,0,2.3,1,2.3,2.3s-1,2.3-2.3,2.3c-1.3,0-2.3-1-2.3-2.3S48.8,34.3,50.1,34.3 M50.1,32.5    c-2.3,0-4.1,1.8-4.1,4.1s1.8,4.1,4.1,4.1s4.1-1.8,4.1-4.1S52.3,32.5,50.1,32.5L50.1,32.5z"/>
	</g>
	<path class="st0" d="M23.6,63.8c-3.5,0-6.7-2-8.3-5.3c-0.7,0.2-1.4,0.3-2.2,0.3c-5.2,0-9.4-4.4-9.4-9.9c0-1.9,0.5-3.7,1.4-5.2   c-2.7-1.8-4.3-4.9-4.3-8.3c0-3.4,1.6-6.5,4.3-8.3c-0.9-1.5-1.4-3.3-1.4-5.2c0-5.5,4.2-9.9,9.4-9.9c0.7,0,1.4,0.1,2.1,0.3   c1.6-3.3,4.8-5.4,8.4-5.4c5.1,0,9.3,4.2,9.4,9.6l0,9c0,0.6-0.4,1-1,1l0,0c-0.6,0-1-0.4-1-1l0-9c-0.1-4.3-3.4-7.7-7.4-7.7   c-3,0-5.7,1.9-6.9,4.9c-0.2,0.5-0.8,0.8-1.3,0.6c-0.8-0.3-1.6-0.4-2.4-0.4c-4.1,0-7.4,3.5-7.4,7.9c0,1.8,0.6,3.5,1.6,4.9   c0.2,0.2,0.2,0.5,0.2,0.8S7.2,28.1,7,28.2c-2.6,1.3-4.2,4.1-4.2,7.1c0,3,1.7,5.8,4.2,7.1c0.3,0.1,0.5,0.4,0.5,0.7   c0.1,0.3,0,0.6-0.2,0.8c-1.1,1.4-1.7,3.1-1.7,5c0,4.4,3.3,7.9,7.4,7.9c0.8,0,1.6-0.1,2.4-0.4c0.5-0.2,1.1,0.1,1.3,0.6   c1.2,2.9,3.8,4.8,6.8,4.8c3.9,0,7.2-3.3,7.4-7.4l0-12.6c0-0.6,0.4-1,1-1l0,0c0.6,0,1,0.4,1,1l0,12.6C32.8,59.7,28.6,63.8,23.6,63.8   z"/>
	<path class="st0" d="M6.6,44.3c-0.2,0-0.5-0.1-0.7-0.3c-0.4-0.4-0.4-1-0.1-1.4c0.1-0.1,2.2-2.4,4.1-3.5c0.5-0.3,1.1-0.1,1.4,0.4   c0.3,0.5,0.1,1.1-0.4,1.4c-1.7,1-3.6,3.1-3.6,3.1C7.1,44.2,6.9,44.3,6.6,44.3z"/>
	<path class="st0" d="M20.1,17.1c-0.2,0-0.5-0.1-0.7-0.3c-1.4-1.3-4-2.5-4-2.5c-0.5-0.2-0.7-0.8-0.5-1.3c0.2-0.5,0.8-0.7,1.3-0.5   c0.1,0.1,2.9,1.3,4.5,2.8c0.4,0.4,0.4,1,0.1,1.4C20.6,17,20.4,17.1,20.1,17.1z"/>
	<path class="st0" d="M21.7,26.6c-0.6,0-1-0.4-1-1c0-2,0.7-3.6,2.1-4.8c1.3-1.1,2.9-1.7,4.4-1.7h4.3c0.6,0,1,0.4,1,1s-0.4,1-1,1   h-4.3c-1.1,0-2.2,0.4-3.1,1.2c-1,0.8-1.4,1.8-1.4,3.2C22.7,26.1,22.3,26.6,21.7,26.6z"/>
	<path class="st0" d="M14.1,31.9c-0.6,0-1-0.4-1-1c0-1.3-0.3-1.8-0.6-2c-0.6-0.5-1.3-0.7-2-0.7H6c-0.6,0-1-0.4-1-1s0.4-1,1-1h4.4   c1.2,0,2.4,0.4,3.3,1.2c0.9,0.8,1.3,1.9,1.3,3.6C15.1,31.5,14.6,31.9,14.1,31.9z"/>
	<path class="st0" d="M15.8,58.1c-0.6,0-1-0.4-1-1v-5.5c0-1.9,0.4-3.4,1.3-4.6c1.2-1.6,2.9-2.5,4.7-2.5c0.6,0,1,0.4,1,1s-0.4,1-1,1   c-1.5,0-2.5,0.9-3.1,1.7c-0.6,0.8-0.9,1.9-0.9,3.4v5.5C16.8,57.6,16.3,58.1,15.8,58.1z"/>
	<g>
		<circle class="st1" cx="22.5" cy="43.8" r="2.3"/>
		<path class="st0" d="M22.5,41.5c1.3,0,2.3,1,2.3,2.3s-1,2.3-2.3,2.3c-1.3,0-2.3-1-2.3-2.3S21.2,41.5,22.5,41.5 M22.5,39.7    c-2.3,0-4.1,1.8-4.1,4.1s1.8,4.1,4.1,4.1s4.1-1.8,4.1-4.1S24.7,39.7,22.5,39.7L22.5,39.7z"/>
	</g>
	<g>
		<circle class="st1" cx="22.5" cy="26.7" r="2.3"/>
		<path class="st0" d="M22.5,24.4c1.3,0,2.3,1,2.3,2.3s-1,2.3-2.3,2.3c-1.3,0-2.3-1-2.3-2.3S21.2,24.4,22.5,24.4 M22.5,22.6    c-2.3,0-4.1,1.8-4.1,4.1s1.8,4.1,4.1,4.1s4.1-1.8,4.1-4.1S24.7,22.6,22.5,22.6L22.5,22.6z"/>
	</g>
	<g>
		<circle class="st1" cx="14" cy="34.6" r="2.3"/>
		<path class="st0" d="M14,32.3c1.3,0,2.3,1,2.3,2.3s-1,2.3-2.3,2.3c-1.3,0-2.3-1-2.3-2.3S12.7,32.3,14,32.3 M14,30.5    c-2.3,0-4.1,1.8-4.1,4.1s1.8,4.1,4.1,4.1s4.1-1.8,4.1-4.1S16.3,30.5,14,30.5L14,30.5z"/>
	</g>
</g>
</svg>