<?xml version="1.0" encoding="utf-8"?>
<!-- Generator: Adobe Illustrator 19.0.0, SVG Export Plug-In . SVG Version: 6.00 Build 0)  -->
<svg version="1.1" id="Layer_1" xmlns="http://www.w3.org/2000/svg" xmlns:xlink="http://www.w3.org/1999/xlink" x="0px" y="0px"
	 viewBox="0 0 96 96" style="enable-background:new 0 0 96 96;" xml:space="preserve">
<style type="text/css">
	.st0{fill:#FABC3D;}
	.st1{fill:#3E3E3F;}
	.st2{fill:#FBC8C8;}
	.st3{fill:#FBD7D7;}
	.st4{fill:#F37A10;}
	.st5{fill:#F99134;}
	.st6{fill:#9E9FA0;}
</style>
<g id="XMLID_1_">
	<circle id="XMLID_3_" class="st0" cx="48" cy="48" r="32.5"/>
	<path id="XMLID_4_" class="st1" d="M64.6,60.4c-0.4-0.8-1-1.4-1.8-1.8l-8.8-2.4v-3.5l-3,2.4c-0.3,0.4-0.8,0.6-1.3,0.6H48h-1.6
		c-0.5,0-1-0.2-1.3-0.6l-3-2.4v3.5l-8.8,2.4c-0.8,0.3-1.4,1-1.8,1.8l-2.4,6.5H48h18.9L64.6,60.4z"/>
	<path id="XMLID_5_" class="st2" d="M58.1,43.4c0-0.7-0.6-1.3-1.2-1.3c-0.6,0-0.6,0.7-0.6,0.7v-0.7c0-5.3-0.6-8.9-8.3-8.9
		s-8.3,3.5-8.3,8.9v4.7l2.4,5.9l3,2.4c0.3,0.4,0.8,0.6,1.3,0.6H48h1.6c0.5,0,1-0.2,1.3-0.6l3-2.4l1.9-4.7
		C57.5,47.9,58.1,45.3,58.1,43.4z"/>
	<path id="XMLID_6_" class="st3" d="M39.7,42.1v0.7c0,0,0-0.7-0.6-0.7S38,42.7,38,43.4c0,1.9,0.6,4.5,2.2,4.6l1.9,4.7l3,2.4
		c0.3,0.4,0.8,0.6,1.3,0.6H48V33.2C40.3,33.2,39.8,36.8,39.7,42.1z"/>
	<path id="XMLID_9_" class="st4" d="M56.4,37c1.6-2.3,1.6-5,1.6-5H48H44c-1.5,0-3,0.6-4,1.8c-1,1.1-1.5,2.7-1.3,4.2l1.7,10.3
		l1.8,4.4l3,2.4c0.3,0.4,0.8,0.6,1.3,0.6H48h1.6c0.5,0,1-0.2,1.3-0.6l3-2.4l1.8-4.4l1.4-9.8c0.1-0.4,0-0.9-0.3-1.2
		C56.7,37.2,56.6,37.1,56.4,37z M55.7,42.1L54.5,48v0l-1.8,3.5h-0.6l-0.8-2.3c-0.2-0.7-0.9-1.2-1.7-1.2H48h-1.7
		c-0.8,0-1.4,0.5-1.7,1.2l-0.8,2.3h-0.6L41.5,48v0l-1.2-5.9v-5.3c0,0,0,3.2,7.7,3.5c0.4,0,0.8,0,1.2,0c3.2,0,5.2-1.1,6.5-2.4V42.1z"
		/>
	<path id="XMLID_10_" class="st5" d="M40.3,48.3l1.8,4.4l3,2.4c0.3,0.4,0.8,0.6,1.3,0.6H48V48h-1.7c-0.8,0-1.4,0.5-1.7,1.2l-0.8,2.3
		h-0.6L41.5,48v0l-1.2-5.9v-5.3c0,0,0,3.2,7.7,3.5V32H44c-1.5,0-3,0.6-4,1.8c-1,1.1-1.5,2.7-1.3,4.2"/>
	<path id="XMLID_11_" class="st3" d="M45.7,49.8h4.7c0,0,0,1.8-2.4,1.8S45.7,49.8,45.7,49.8z"/>
	<path id="XMLID_12_" class="st1" d="M51.9,40.7c-1.4,0-2.9,1-2.9,1h-1h-1c0,0-1.4-1-2.9-1c-2.4,0-3.8,1-3.8,1v0.5h0.5
		c0,2.9,1,4.3,3.5,4.3c2.5,0,3-2.4,3-3.1s0.7-0.8,0.7-0.8s0.7,0.1,0.7,0.8s0.5,3.1,3,3.1c2.5,0,3.5-1.4,3.5-4.3h0.5v-0.5
		C55.7,41.6,54.3,40.7,51.9,40.7z"/>
	<path id="XMLID_13_" class="st6" d="M44.2,41.6c-1.3,0-2.4,0.6-2.4,1.9c0,0.5,0.2,1,0.5,1.4l3.1-3.1C45,41.7,44.6,41.6,44.2,41.6z"
		/>
	<path id="XMLID_14_" class="st6" d="M51.9,41.6c-1.3,0-2.4,0.6-2.4,1.9c0,0.5,0.2,1,0.5,1.4l3.1-3.1C52.8,41.7,52.3,41.6,51.9,41.6
		z"/>
</g>
</svg>
