<?xml version="1.0" encoding="utf-8"?>
<!-- Generator: Adobe Illustrator 19.0.0, SVG Export Plug-In . SVG Version: 6.00 Build 0)  -->
<svg version="1.1" id="Layer_1" xmlns="http://www.w3.org/2000/svg" xmlns:xlink="http://www.w3.org/1999/xlink" x="0px" y="0px"
	 viewBox="0 0 96 96" style="enable-background:new 0 0 96 96;" xml:space="preserve">
<style type="text/css">
	.st0{fill:#32BEA6;}
	.st1{fill:#FBC8C8;}
	.st2{fill:#F7B4B4;}
	.st3{fill:#FBD7D7;}
	.st4{fill:#FFFFFF;}
	.st5{fill:#F79392;}
	.st6{fill:#0484AB;}
	.st7{fill:#6FDAF1;}
	.st8{fill:#DF2C2C;}
	.st9{fill:#3E3E3F;}
	.st10{fill:#9CE5F4;}
	.st11{fill:#C9F2F8;}
	.st12{fill:#84462D;}
	.st13{fill:#9C6144;}
</style>
<g id="XMLID_1_">
	<circle id="XMLID_3_" class="st0" cx="48" cy="48" r="32.5"/>
	<path id="XMLID_4_" class="st1" d="M57.3,42.2c-1,0.6-1,1.1-1,2.2V45h-1.2v-7.1c-2.2,0.5-4.7,0.8-7.1,0.6v0
		c-2.4-0.1-5.2-0.7-7.1-2.1V45h-1.2v1.8l2.4,5.9l3,2.4c0.3,0.4,0.8,0.6,1.3,0.6H48h1.6c0.5,0,1-0.2,1.3-0.6l3-2.4l1.9-4.7
		c1.7-0.1,2.2-2.7,2.2-4.6C58.1,42.9,57.7,42.4,57.3,42.2z"/>
	<path id="XMLID_5_" class="st2" d="M49.6,55.7H48h-1.6c-0.5,0-1-0.2-1.3-0.6l-3-2.4v2.4l5.9,4.7h0h0l5.9-4.7v-2.4l-3,2.4
		C50.6,55.5,50.1,55.7,49.6,55.7z"/>
	<path id="XMLID_6_" class="st1" d="M45.1,55.1l-3-2.4v2.4l5.9,4.7h0v-4.1h-1.6C45.9,55.7,45.5,55.5,45.1,55.1z"/>
	<path id="XMLID_7_" class="st3" d="M40.9,45h-1.2v-0.7c0-1,0-1.6-1-2.2c-0.4,0.2-0.8,0.7-0.8,1.2c0,1.9,0.6,4.5,2.2,4.6l1.9,4.7
		l3,2.4c0.3,0.4,0.8,0.6,1.3,0.6H48V38.6c-2.7-0.2-5.3-0.8-7.1-2.1V45z"/>
	<polygon id="XMLID_8_" class="st4" points="44.6,61.5 48,66.9 51.4,61.5 55.1,55.7 53.9,55.1 48,59.8 42.1,55.1 40.9,55.7 	"/>
	<path id="XMLID_9_" class="st5" d="M45.1,49.2H51c0,0,0,1.8-3,1.8S45.1,49.2,45.1,49.2z"/>
	<path id="XMLID_10_" class="st6" d="M29.1,66.9l2.4-6.5c0.4-0.8,1-1.4,1.8-1.8l7.7-3L48,66.9H29.1z"/>
	<path id="XMLID_11_" class="st6" d="M66.9,66.9l-2.4-6.5c-0.4-0.8-1-1.4-1.8-1.8l-7.7-3L48,66.9H66.9z"/>
	<polygon id="XMLID_12_" class="st7" points="39.2,56.3 45.7,66.9 48,66.9 47.1,65.5 40.9,55.7 	"/>
	<polygon id="XMLID_13_" class="st7" points="56.9,56.3 50.4,66.9 48,66.9 48.9,65.5 55.1,55.7 	"/>
	<path id="XMLID_14_" class="st8" d="M53.3,58.6l-4,1.8C49,60,48.6,59.8,48,59.8s-1,0.2-1.3,0.6l-4-1.8v5.9l4-1.8
		c0.3,0.4,0.8,0.6,1.3,0.6s1-0.2,1.3-0.6l4,1.8V58.6z"/>
	<path id="XMLID_15_" class="st9" d="M51.9,39.7c-0.9,0-1.7,0.4-2.3,1c-1-0.5-2.1-0.5-3,0c-0.6-0.6-1.4-1-2.3-1
		c-1.8,0-3.3,1.5-3.3,3.3c0,1.8,1.5,3.3,3.3,3.3c1.8,0,3.3-1.5,3.3-3.3c0-0.5-0.1-1-0.3-1.5c0.6-0.3,1.3-0.3,1.9,0
		c-0.2,0.4-0.3,0.9-0.3,1.5c0,1.8,1.5,3.3,3.3,3.3s3.3-1.5,3.3-3.3C55.1,41.2,53.7,39.7,51.9,39.7z"/>
	<circle id="XMLID_16_" class="st10" cx="44.2" cy="43" r="2.1"/>
	<circle id="XMLID_17_" class="st10" cx="51.9" cy="43" r="2.1"/>
	<path id="XMLID_18_" class="st11" d="M44.2,40.9c-1.1,0-2.1,0.9-2.1,2.1c0,0.6,0.2,1.1,0.6,1.5l2.9-2.9
		C45.3,41.1,44.8,40.9,44.2,40.9z"/>
	<path id="XMLID_19_" class="st11" d="M51.8,40.9c-1.1,0-2.1,0.9-2.1,2.1c0,0.6,0.2,1.1,0.6,1.5l2.9-2.9
		C53,41.1,52.4,40.9,51.8,40.9z"/>
	<path id="XMLID_20_" class="st12" d="M59.8,35.9c-1.1-7.8-20.1-8.4-20.1-1.2c0,0.5,0,0.7,0,0.7c2.9,3.4,10.1,3.8,15.4,2.5V45h1.2
		v-0.7c0-1.1,0-1.6,1.2-2.2v-4.9C58.4,36.8,59.2,36.4,59.8,35.9z"/>
	<path id="XMLID_21_" class="st13" d="M48,29.7c-4.4,0.1-8.3,1.8-8.3,5c-0.7,0.4-1.2,1.2-1.2,2v5.3c1.2,0.6,1.2,1.2,1.2,2.2V45h1.2
		v-8.6c1.8,1.3,4.4,1.9,7.1,2.1V29.7z"/>
</g>
</svg>
