<?xml version="1.0" encoding="utf-8"?>
<!-- Generator: Adobe Illustrator 19.0.0, SVG Export Plug-In . SVG Version: 6.00 Build 0)  -->
<svg version="1.1" id="Layer_1" xmlns="http://www.w3.org/2000/svg" xmlns:xlink="http://www.w3.org/1999/xlink" x="0px" y="0px"
	 viewBox="0 0 96 96" style="enable-background:new 0 0 96 96;" xml:space="preserve">
<style type="text/css">
	.st0{fill:#25B7D3;}
	.st1{fill:#3E3E3F;}
	.st2{fill:#F7B4B4;}
	.st3{fill:#FBC8C8;}
	.st4{fill:#FBD7D7;}
	.st5{fill:#F79392;}
	.st6{fill:#84462D;}
	.st7{fill:#9C6144;}
	.st8{fill:#FACB1B;}
	.st9{fill:#FBE158;}
</style>
<g id="XMLID_1_">
	<circle id="XMLID_3_" class="st0" cx="48" cy="48" r="32.5"/>
	<path id="XMLID_4_" class="st1" d="M66.9,66.9l-2.4-6.5c-0.4-0.8-1-1.4-1.8-1.8l-7.7-3L48,66.9H66.9z"/>
	<path id="XMLID_7_" class="st2" d="M53.9,52.7l-3,2.4c-0.3,0.4-0.8,0.6-1.3,0.6H48h-1.6c-0.5,0-1-0.2-1.3-0.6l-3-2.4v2.4l-1.2,0.6
		L48,66.9l7.1-11.2l-1.2-0.6V52.7z M48,59.8L48,59.8L48,59.8L48,59.8L48,59.8z"/>
	<path id="XMLID_8_" class="st1" d="M29.1,66.9l2.4-6.5c0.4-0.8,1-1.4,1.8-1.8l7.7-3L48,66.9H29.1z"/>
	<path id="XMLID_9_" class="st3" d="M45.1,55.1l-3-2.4v2.4l-1.2,0.6L48,66.9v-7.1l0,0h0v-4.2h-1.6C45.9,55.7,45.4,55.4,45.1,55.1z"
		/>
	<path id="XMLID_10_" class="st3" d="M57.4,42.3c-0.1,1-0.5,2.8-1.7,2.8c0-1.8,0-4.7,0-4.7s-0.6,2.4-3,2.4c0-2.4,0-6.5,0-6.5
		s-1.2,6.5-5.9,6.5c0-1.2,0-4.1,0-4.1s-1.8,4.1-4.1,4.1c0-1.8,0-3.5,0-3.5l-2.4,3v3c0,0-0.3-0.2-0.6-0.5v2.3l2.4,5.9l3,2.4
		c0.3,0.4,0.8,0.6,1.3,0.6H48h1.6c0.5,0,1-0.2,1.3-0.6l3-2.4l1.9-4.7c1.7-0.1,2.2-2.7,2.2-4.6C58,43,57.8,42.5,57.4,42.3z"/>
	<path id="XMLID_11_" class="st4" d="M46.8,38.5c0,0-1.8,4.1-4.1,4.1c0-1.8,0-3.5,0-3.5l-2.4,3v3c0,0-1.4-0.9-1.7-2.8
		c-0.4,0.2-0.7,0.7-0.7,1.1c0,1.9,0.6,4.5,2.2,4.6l1.9,4.7l3,2.4c0.3,0.4,0.8,0.6,1.3,0.6H48V42.5c-0.4,0.1-0.8,0.1-1.2,0.1
		C46.8,41.5,46.8,38.5,46.8,38.5z"/>
	<path id="XMLID_12_" class="st5" d="M45,49.2H51c0,0,0,1.8-3,1.8S45,49.2,45,49.2z"/>
	<path id="XMLID_13_" class="st6" d="M57.5,41.5c0-5.9-3.6-10.6-9.5-10.6s-9.5,4.8-9.5,10.6c0,2.4,1.8,3.5,1.8,3.5v-3l2.4-3
		c0,0,0,1.8,0,3.5c2.4,0,4.1-4.1,4.1-4.1s0,3,0,4.1c4.7,0,5.9-6.5,5.9-6.5s0,4.1,0,6.5c2.4,0,3-2.4,3-2.4s0,3,0,4.7
		C57.5,45,57.5,41.5,57.5,41.5z"/>
	<path id="XMLID_14_" class="st7" d="M38.5,41.5c0,2.4,1.8,3.5,1.8,3.5v-3l2.4-3c0,0,0,1.8,0,3.5c2.4,0,4.1-4.1,4.1-4.1s0,3,0,4.1
		c0.4,0,0.8-0.1,1.2-0.1V30.9C42.1,30.9,38.5,35.6,38.5,41.5z"/>
	<path id="XMLID_15_" class="st1" d="M56.8,42.4c-1.2-0.9-8.8-0.3-8.8-0.3s-7.7-0.6-8.9,0.3c0,0,0,1.2,0,1.8
		c1.2,0.6,0.4,1.6,1.2,1.8c1,0.2,5.1,0.6,5.9,0c0.8-0.6,1.2-2.4,1.8-2.4c0.6,0,1,1.7,1.8,2.4c0.8,0.6,4.9,0.2,5.9,0
		c0.8-0.2,0-1.2,1.2-1.8C56.9,43.5,56.8,42.4,56.8,42.4z"/>
	<path id="XMLID_16_" class="st8" d="M40.8,45.2c-0.6-1.1-0.4-2.5,0.1-2.6c0.5-0.1,4.2-0.5,5.6,0.2c0.6,0.3-0.2,2.7-1,2.8
		C43.8,45.7,41.1,45.8,40.8,45.2z"/>
	<path id="XMLID_17_" class="st8" d="M55.3,45.2c0.6-1.1,0.4-2.5-0.1-2.6c-0.5-0.1-4.2-0.5-5.6,0.2c-0.6,0.3,0.2,2.7,1,2.8
		C52.3,45.8,55,45.8,55.3,45.2z"/>
	<path id="XMLID_18_" class="st9" d="M41,42.5c-0.5,0.1-0.7,1.5-0.1,2.6c0,0.1,0.1,0.1,0.2,0.2l2.6-3C42.4,42.4,41.3,42.5,41,42.5z"
		/>
	<path id="XMLID_19_" class="st9" d="M49.6,42.8c-0.5,0.3,0.1,2.3,0.8,2.7l2.7-3.1C51.8,42.4,50.3,42.4,49.6,42.8z"/>
</g>
</svg>
