<?xml version="1.0" encoding="utf-8"?>
<!-- Generator: Adobe Illustrator 19.0.0, SVG Export Plug-In . SVG Version: 6.00 Build 0)  -->
<svg version="1.1" id="Layer_1" xmlns="http://www.w3.org/2000/svg" xmlns:xlink="http://www.w3.org/1999/xlink" x="0px" y="0px"
	 viewBox="0 0 96 96" style="enable-background:new 0 0 96 96;" xml:space="preserve">
<style type="text/css">
	.st0{fill:#25B7D3;}
	.st1{fill:#F7B4B4;}
	.st2{fill:#3E3E3F;}
	.st3{fill:#FBC8C8;}
	.st4{fill:#FA5655;}
	.st5{fill:#FBD7D7;}
	.st6{fill:#F79392;}
	.st7{fill:#FFFFFF;}
</style>
<g id="XMLID_1_">
	<circle id="XMLID_3_" class="st0" cx="48" cy="48" r="32.5"/>
	<path id="XMLID_4_" class="st1" d="M66.9,66.9l-2.1-5.5c-0.5-1.4-1.7-2.4-3.1-2.8l-7.8-1.9v-4.9c-1.7,2.6-4,3.8-5.9,4.5
		c-1.9-0.6-4.2-1.9-5.9-4.5V58c0,0,1.2,2.4,5.9,2.4v6.5H66.9z"/>
	<path id="XMLID_5_" class="st2" d="M53.9,56.7l3,0.7V47.3c-0.3,0.3-0.8,0.6-1.3,0.7c-0.4,1.5-1,2.8-1.7,3.8V56.7z"/>
	<path id="XMLID_6_" class="st3" d="M42.1,51.8v4.9l-7.8,1.9c-1.4,0.4-2.5,1.5-3.1,2.8l-2.1,5.5H48V56.3
		C46.1,55.6,43.8,54.4,42.1,51.8z"/>
	<path id="XMLID_7_" class="st3" d="M56.9,42.1L56.9,42.1c-0.9,0.3-5.2-0.9-5.3-9.6c-1-0.3-2.1-0.5-3.6-0.5c-7.7,0-8.3,4.7-8.3,10
		c0,9.9,4.7,13,8.3,14.2c2.7-0.9,6.1-2.9,7.6-8.3c2-0.3,2.5-2.7,2.5-4.6C58,42.8,57.5,42.1,56.9,42.1z"/>
	<path id="XMLID_8_" class="st4" d="M64.8,61.4c-0.3-0.9-1-1.7-1.7-2.2c-1.5,2.7-7.9,4.8-15.6,4.8c-7.1,0-13.2-1.7-15.2-4.1
		c-0.4,0.4-0.8,1-1,1.6l-2.1,5.5H48h18.9L64.8,61.4z"/>
	<path id="XMLID_9_" class="st5" d="M48,32c-7.7,0-8.3,4.7-8.3,10c0,9.9,4.7,13,8.3,14.2V32z"/>
	<path id="XMLID_10_" class="st2" d="M46.2,43.3c0-0.7-0.5-1.2-1.2-1.2h0l0,0c0,0.7-0.5,1.2-1.2,1.2c0,0.6,0.5,1.1,1.2,1.1
		C45.7,44.5,46.2,43.9,46.2,43.3z"/>
	<path id="XMLID_11_" class="st2" d="M52.1,43.3c0-0.7-0.5-1.2-1.2-1.2h0l0,0c0,0.7-0.5,1.2-1.2,1.2c0,0.6,0.5,1.1,1.2,1.1
		C51.6,44.5,52.1,43.9,52.1,43.3z"/>
	<path id="XMLID_12_" class="st6" d="M45,49.8H51c0,0,0,1.8-3,1.8S45,49.8,45,49.8z"/>
	<path id="XMLID_13_" class="st2" d="M37.4,38.5v27.2c0,0,6.5-3.5,6.5-14.4v-9.3c0-9.4,8.3-4.7,7.7-10
		C51.5,27.3,37.4,29.7,37.4,38.5z"/>
	<path id="XMLID_14_" class="st2" d="M51.5,32.1c0,9.1,4.4,10.3,5.3,10C56.9,40.2,58.1,32.1,51.5,32.1L51.5,32.1z"/>
	<path id="XMLID_15_" class="st7" d="M56.5,48.6l0.9,2.2c0.2,0.4,0.1,0.8-0.2,1.1c-0.4,0.4-1,0.4-1.4,0c-0.3-0.3-0.4-0.7-0.2-1.1
		L56.5,48.6z"/>
</g>
</svg>
