<?xml version="1.0" encoding="utf-8"?>
<!-- Generator: Adobe Illustrator 19.0.0, SVG Export Plug-In . SVG Version: 6.00 Build 0)  -->
<svg version="1.1" id="Layer_1" xmlns="http://www.w3.org/2000/svg" xmlns:xlink="http://www.w3.org/1999/xlink" x="0px" y="0px"
	 viewBox="0 0 96 96" style="enable-background:new 0 0 96 96;" xml:space="preserve">
<style type="text/css">
	.st0{fill:#32BEA6;}
	.st1{fill:#692E19;}
	.st2{fill:#84462D;}
	.st3{fill:#3E3E3F;}
	.st4{fill:#FBC8C8;}
	.st5{fill:#F7B4B4;}
	.st6{fill:#FBD7D7;}
	.st7{fill:#F79392;}
	.st8{fill:#FFFFFF;}
	.st9{fill:#FBE158;}
</style>
<g id="XMLID_1_">
	<circle id="XMLID_3_" class="st0" cx="48" cy="48" r="32.5"/>
	<path id="XMLID_4_" class="st1" d="M48,29.7c-2.7,0-4.8,0.4-6.4,1C40,31.2,38.8,32,38,32.8c-1.8,1.9-1.8,3.9-1.8,3.9l1.2,22.5h7.1
		V38.6c2,0.8,4.7,1.2,7.1,1.4v19.2h7.1l1.2-22.5C59.8,36.8,59.8,29.7,48,29.7z"/>
	<path id="XMLID_5_" class="st2" d="M48,29.7c-2.7,0-4.8,0.4-6.4,1C40,31.2,38.8,32,38,32.8c-1.8,1.9-1.8,3.9-1.8,3.9l1.2,22.5h7.1
		V38.6c1.1,0.4,2.3,0.7,3.5,0.9V29.7z"/>
	<path id="XMLID_6_" class="st3" d="M48,56.9l-4.1-0.6l-9.6,2.3c-1.4,0.4-2.5,1.5-3.1,2.8l-2.1,5.5H48V56.9z"/>
	<path id="XMLID_7_" class="st3" d="M48,56.9l4.1-0.6l9.6,2.3c1.4,0.4,2.5,1.5,3.1,2.8l2.1,5.5H48V56.9z"/>
	<path id="XMLID_8_" class="st4" d="M42.1,51.8v8l4.7,7.1H48V56.3C46.1,55.6,43.8,54.4,42.1,51.8z"/>
	<path id="XMLID_9_" class="st5" d="M48,56.3v10.6h1.2l4.7-7.1v-8C52.2,54.4,49.9,55.6,48,56.3z"/>
	<path id="XMLID_10_" class="st4" d="M56.9,42.1c-0.2,0-0.4,0-0.6,0v0c0-0.6,0-1.2,0-1.8c-4.8-0.1-15-0.8-15.3-5.1
		c-1,1.8-1.2,4.3-1.2,6.9v0c-0.2,0-0.4,0-0.6,0c-0.6,0-1.2,0.7-1.2,1.3c0,1.8,0.5,4.2,2.5,4.6c1.4,5.4,4.9,7.4,7.6,8.3
		c2.7-0.9,6.1-2.9,7.6-8.3c2-0.3,2.5-2.7,2.5-4.6C58,42.7,57.5,42.1,56.9,42.1z"/>
	<path id="XMLID_11_" class="st6" d="M40.9,35.2c-1,1.8-1.2,4.3-1.2,6.9v0c-0.2,0-0.4,0-0.6,0c-0.6,0-1.2,0.7-1.2,1.3
		c0,1.8,0.5,4.2,2.5,4.6c1.4,5.4,4.9,7.4,7.6,8.3V39.6C44.3,38.9,41.1,37.6,40.9,35.2z"/>
	<path id="XMLID_12_" class="st7" d="M45,49.8H51c0,0,0,1.8-3,1.8S45,49.8,45,49.8z"/>
	<polygon id="XMLID_13_" class="st8" points="42.1,53.3 43.3,59.8 48,66.9 46.8,66.9 39.1,62.2 41.5,59.2 36.2,58 	"/>
	<polygon id="XMLID_14_" class="st8" points="53.9,53.3 52.7,59.8 48,66.9 49.2,66.9 56.9,62.2 54.5,59.2 59.8,58 	"/>
	<path id="XMLID_15_" class="st3" d="M46.2,43.3c0-0.7-0.5-1.2-1.2-1.2h0l0,0c0,0.7-0.5,1.2-1.2,1.2c0,0.6,0.5,1.1,1.2,1.1
		C45.7,44.5,46.2,43.9,46.2,43.3z"/>
	<path id="XMLID_16_" class="st3" d="M52.1,43.3c0-0.7-0.5-1.2-1.2-1.2h0l0,0c0,0.7-0.5,1.2-1.2,1.2c0,0.6,0.5,1.1,1.2,1.1
		C51.6,44.5,52.1,43.9,52.1,43.3z"/>
	<circle id="XMLID_17_" class="st9" cx="57.1" cy="48.8" r="1"/>
	<circle id="XMLID_18_" class="st9" cx="38.8" cy="48.8" r="1"/>
</g>
</svg>
