<?xml version="1.0" encoding="utf-8"?>
<!-- Generator: Adobe Illustrator 19.0.0, SVG Export Plug-In . SVG Version: 6.00 Build 0)  -->
<svg version="1.1" id="Layer_1" xmlns="http://www.w3.org/2000/svg" xmlns:xlink="http://www.w3.org/1999/xlink" x="0px" y="0px"
	 viewBox="0 0 96 96" style="enable-background:new 0 0 96 96;" xml:space="preserve">
<style type="text/css">
	.st0{fill:#32BEA6;}
	.st1{fill:#0484AB;}
	.st2{fill:#F4D0A1;}
	.st3{fill:#F8E1C2;}
	.st4{fill:#FFFFFF;}
	.st5{fill:#21B2D1;}
	.st6{fill:#9CE5F4;}
	.st7{fill:#FCF1E2;}
	.st8{fill:#3E3E3F;}
	.st9{fill:#F79392;}
</style>
<g id="XMLID_1_">
	<circle id="XMLID_3_" class="st0" cx="48" cy="48" r="32.5"/>
	<path id="XMLID_4_" class="st1" d="M48,56.9l-4.1-0.6l-9.6,2.3c-1.4,0.4-2.5,1.5-3.1,2.8l-2.1,5.5H48V56.9z"/>
	<path id="XMLID_5_" class="st1" d="M48,56.9l4.1-0.6l9.6,2.3c1.4,0.4,2.5,1.5,3.1,2.8l2.1,5.5H48V56.9z"/>
	<path id="XMLID_6_" class="st2" d="M48,55.9c-1.9-0.6-4.2-1.9-5.9-4.5v8c0,1,0.2,2,0.6,3l1.8,4.5h7.1l1.8-4.5c0.4-0.9,0.6-2,0.6-3
		v-8C52.2,54,49.9,55.3,48,55.9z"/>
	<path id="XMLID_7_" class="st3" d="M42.1,51.4v8c0,1,0.2,2,0.6,3l1.8,4.5H48v-11C46.1,55.3,43.8,54,42.1,51.4z"/>
	<path id="XMLID_8_" class="st4" d="M48,64.5c-1.7,0-3.3-0.2-4.7-0.6l1.2,3h7.1l1.2-3C51.3,64.3,49.7,64.5,48,64.5z"/>
	<path id="XMLID_9_" class="st5" d="M40.9,66.9h3.5l-1.8-4.5c-0.4-0.9-0.6-2-0.6-3v-4.4c-1.2,1.2-2.4,2.4-3.5,4.1l2.4,1.2l-3,3
		L40.9,66.9z"/>
	<path id="XMLID_10_" class="st5" d="M55.1,66.9h-3.5l1.8-4.5c0.4-0.9,0.6-2,0.6-3v-4.4c1.2,1.2,2.4,2.4,3.5,4.1l-2.4,1.2l3,3
		L55.1,66.9z"/>
	<path id="XMLID_11_" class="st4" d="M40.3,65.7c0,0.3-0.3,0.6-0.6,0.6h-6.5c-0.3,0-0.6-0.3-0.6-0.6v-4.1c0-0.3,0.3-0.6,0.6-0.6h6.5
		c0.3,0,0.6,0.3,0.6,0.6V65.7z"/>
	<rect id="XMLID_12_" x="33.2" y="62.8" class="st6" width="2.4" height="3"/>
	<path id="XMLID_13_" class="st6" d="M39.7,61h-2.4v-0.3c0-0.5-0.4-0.9-0.9-0.9s-0.9,0.4-0.9,0.9V61h-2.4c-0.3,0-0.6,0.3-0.6,0.6
		v0.6h7.7v-0.6C40.3,61.3,40.1,61,39.7,61z"/>
	<path id="XMLID_14_" class="st3" d="M56.9,41.7c-0.2,0-0.4,0-0.6,0v0c0-5.3-0.6-10-8.3-10s-8.3,4.7-8.3,10v0c-0.2,0-0.4,0-0.6,0
		c-0.6,0-1.2,0.7-1.2,1.3c0,1.8,0.5,4.2,2.5,4.6c1.4,5.4,4.9,7.4,7.6,8.3c2.7-0.9,6.1-2.9,7.6-8.3c2-0.3,2.5-2.7,2.5-4.6
		C58,42.4,57.5,41.7,56.9,41.7z"/>
	<path id="XMLID_15_" class="st7" d="M39.7,41.7L39.7,41.7c-0.2,0-0.4,0-0.6,0c-0.6,0-1.2,0.7-1.2,1.3c0,1.8,0.5,4.2,2.5,4.6
		c1.4,5.4,4.9,7.4,7.6,8.3V31.7C40.3,31.7,39.7,36.4,39.7,41.7z"/>
	<path id="XMLID_16_" class="st8" d="M44.4,42.6c0.8,0,1.6,0.2,1.7,0.7c0-0.6-0.6-1.4-1.7-1.4c-1.2,0-1.8,0.9-1.7,1.4
		C42.9,42.8,43.6,42.6,44.4,42.6z"/>
	<path id="XMLID_17_" class="st8" d="M51.5,42.6c0.8,0,1.6,0.2,1.7,0.7c0-0.6-0.6-1.4-1.7-1.4c-1.2,0-1.8,0.9-1.7,1.4
		C49.9,42.8,50.6,42.6,51.5,42.6z"/>
	<path id="XMLID_18_" class="st8" d="M53.9,51.5c6.5,3,4.8,10.1,8.3,15.4c-7.7-3.5-8.3-7.1-8.3-11.8C53.9,55.1,53.9,52.1,53.9,51.5z
		"/>
	<path id="XMLID_19_" class="st8" d="M45.1,31.7c-0.2-0.1-0.4-0.2-0.6-0.2c-6.5-0.6-7.1,8-4.7,10.4c1.1-0.3,4.9-3.4,5.8-7
		c2.1,4.1,10.9,7.3,10.8,7.2C62.7,31,46.1,27,45.1,31.7z"/>
	<path id="XMLID_20_" class="st9" d="M45,49.4H51c0,0,0,1.8-3,1.8S45,49.4,45,49.4z"/>
</g>
</svg>
