<?xml version="1.0" encoding="windows-1252"?>
<!-- Generator: Adobe Illustrator 19.0.0, SVG Export Plug-In . SVG Version: 6.00 Build 0)  -->
<svg version="1.1" id="Capa_1" xmlns="http://www.w3.org/2000/svg" xmlns:xlink="http://www.w3.org/1999/xlink" x="0px" y="0px" viewBox="0 0 512 512" style="enable-background:new 0 0 512 512;" xml:space="preserve">
<rect x="240" y="195" style="fill:#092339;" width="30" height="60"/>
<path style="fill:#F9B233;" d="M256,242c41.355,0,76,33.645,76,75v87H226L256,242z"/>
<path style="fill:#FBC566;" d="M256,242c-41.355,0-76,33.645-76,75v87h76V242z"/>
<rect x="240" y="290" style="fill:#FEECCC;" width="30" height="75"/>
<rect x="240" style="fill:#092339;" width="30" height="75"/>
<polygon style="fill:#4A8DC6;" points="255,350 224.78,404 255,458 410,458 410,350 "/>
<rect x="100" y="350" style="fill:#77AAD4;" width="155" height="108"/>
<path style="fill:#0E3759;" d="M150,287v9l-75,30L0,296v-9c0-24.81,20.19-45,45-45h60C129.81,242,150,262.19,150,287z"/>
<polygon style="fill:#134A79;" points="150,296 150,350 75,380 0,350 0,296 "/>
<polygon style="fill:#0E3759;" points="150,350 150,404 75,434 0,404 0,350 "/>
<polygon style="fill:#134A79;" points="150,404 150,458 75,488 0,458 0,404 "/>
<path style="fill:#0E3759;" d="M150,458v9c0,24.81-20.19,45-45,45H45c-24.81,0-45-20.19-45-45v-9H150z"/>
<path style="fill:#092339;" d="M512,287v9l-75,30l-75-30v-9c0-24.81,20.19-45,45-45h60C491.81,242,512,262.19,512,287z"/>
<polygon style="fill:#0E3759;" points="512,296 512,350 437,380 362,350 362,296 "/>
<polygon style="fill:#092339;" points="512,350 512,404 437,434 362,404 362,350 "/>
<polygon style="fill:#0E3759;" points="512,404 512,458 437,488 362,458 362,404 "/>
<path style="fill:#092339;" d="M512,458v9c0,24.81-20.19,45-45,45h-60c-24.81,0-45-20.19-45-45v-9H512z"/>
<polygon style="fill:#FA9647;" points="362,62 362,212 256,212 205,137 256,62 "/>
<g>
	<rect x="150" y="62" style="fill:#F9B233;" width="106" height="150"/>
	<polygon style="fill:#F9B233;" points="362,92 362,182 256,182 205,137 256,92  "/>
</g>
<rect x="150" y="92" style="fill:#FBC566;" width="106" height="90"/>
<path style="fill:#F9B233;" d="M150,212c-41.355,0-75-33.645-75-75s33.645-75,75-75s75,33.645,75,75S191.355,212,150,212z"/>
<path style="fill:#FFFFFF;" d="M150,182c-24.813,0-45-20.187-45-45s20.187-45,45-45s45,20.187,45,45S174.813,182,150,182z"/>
<path style="fill:#FA9647;" d="M362,212c-41.355,0-75-33.645-75-75s33.645-75,75-75s75,33.645,75,75S403.355,212,362,212z"/>
<path style="fill:#FEECCC;" d="M362,182c-24.813,0-45-20.187-45-45s20.187-45,45-45s45,20.187,45,45S386.813,182,362,182z"/>
<circle style="fill:#134A79;" cx="150" cy="137" r="15"/>
<circle style="fill:#092339;" cx="362" cy="137" r="15"/>
<g>
</g>
<g>
</g>
<g>
</g>
<g>
</g>
<g>
</g>
<g>
</g>
<g>
</g>
<g>
</g>
<g>
</g>
<g>
</g>
<g>
</g>
<g>
</g>
<g>
</g>
<g>
</g>
<g>
</g>
</svg>