<?xml version="1.0" encoding="iso-8859-1"?>
<!-- Generator: Adobe Illustrator 19.0.0, SVG Export Plug-In . SVG Version: 6.00 Build 0)  -->
<svg version="1.1" id="Layer_1" xmlns="http://www.w3.org/2000/svg" xmlns:xlink="http://www.w3.org/1999/xlink" x="0px" y="0px"
	 viewBox="0 0 497.412 497.412" style="enable-background:new 0 0 497.412 497.412;" xml:space="preserve">
<path style="fill:#7DA81D;" d="M249.249,88.615c-59.29,20.819-104.227,114.507-104.227,159.232
	c0,44.733,44.938,41.582,104.227,49.506V88.615z"/>
<path style="fill:#469315;" d="M248.225,88.615c59.297,20.819,104.172,114.507,104.172,159.232
	c0,44.733-44.922,41.582-104.172,49.506L248.225,88.615L248.225,88.615z"/>
<path style="fill:#825E40;" d="M248.698,396.012c-7.381,0-13.351-5.963-13.351-13.336V243.554c0-7.389,5.979-13.367,13.351-13.367
	c7.389,0,13.359,5.986,13.359,13.367v139.122C262.057,390.049,256.079,396.012,248.698,396.012z"/>
<g>
	<path style="fill:#BA8660;" d="M295.456,399.36h-93.491c-3.694,0-6.68-2.977-6.68-6.672c0-3.71,2.985-6.695,6.68-6.695h93.491
		c3.686,0,6.68,2.985,6.68,6.695C302.135,396.383,299.142,399.36,295.456,399.36z"/>
	<path style="fill:#BA8660;" d="M238.23,422.739h-30.807c-3.694,0-6.68-2.985-6.68-6.664c0-3.718,2.985-6.695,6.68-6.695h30.807
		c3.702,0,6.688,2.977,6.688,6.695C244.917,419.753,241.932,422.739,238.23,422.739z"/>
	<path style="fill:#BA8660;" d="M289.997,422.739h-30.815c-3.686,0-6.68-2.985-6.68-6.664c0-3.718,2.993-6.695,6.68-6.695h30.815
		c3.694,0,6.68,2.977,6.68,6.695C296.669,419.753,293.683,422.739,289.997,422.739z"/>
</g>
<g>
	<path style="fill:#825E40;" d="M252.77,278.985l-28.971-28.987c-2.442-2.45-6.388-2.458-8.846-0.008
		c-2.442,2.442-2.434,6.396,0,8.838l28.995,28.987L252.77,278.985z"/>
	<path style="fill:#825E40;" d="M244.641,278.985l28.979-28.987c2.442-2.45,6.396-2.458,8.838-0.008c2.45,2.442,2.442,6.396,0,8.838
		l-28.995,28.987L244.641,278.985z"/>
</g>
<g>
	<path style="fill:#A3CC32;" d="M226.942,240.908c0-11.595,9.405-21,21-21c11.611,0,21,9.405,21,21"/>
	<path style="fill:#A3CC32;" d="M181.319,195.293c0-7.428,6.034-13.454,13.454-13.454c7.428,0,13.446,6.026,13.446,13.454"/>
	<path style="fill:#A3CC32;" d="M176.727,243.216c0-7.428,6.034-13.454,13.446-13.454c7.436,0,13.462,6.026,13.462,13.454"/>
	<path style="fill:#A3CC32;" d="M237.111,164.919c0-5.443,4.419-9.846,9.846-9.846c5.427,0,9.846,4.403,9.846,9.846"/>
	<path style="fill:#A3CC32;" d="M274.527,171.473c0-7.428,6.034-13.454,13.446-13.454c7.436,0,13.462,6.026,13.462,13.454"/>
	<path style="fill:#A3CC32;" d="M299.473,267.303c0-7.428,6.034-13.454,13.454-13.454c7.428,0,13.446,6.026,13.446,13.454"/>
	<path style="fill:#A3CC32;" d="M235.804,130.135c0-7.428,6.034-13.454,13.446-13.454c7.436,0,13.462,6.026,13.462,13.454"/>
	<path style="fill:#A3CC32;" d="M293.077,201.681c0-4.797,3.899-8.696,8.696-8.696s8.688,3.891,8.688,8.696"/>
	<path style="fill:#A3CC32;" d="M225.461,204.965c0-4.797,3.899-8.696,8.696-8.696s8.68,3.891,8.68,8.696"/>
	<path style="fill:#A3CC32;" d="M183.461,271.25c0-4.797,3.899-8.696,8.696-8.696c4.797,0,8.688,3.891,8.688,8.696"/>
	<path style="fill:#A3CC32;" d="M298.323,229.494c0-4.797,3.907-8.696,8.696-8.696c4.805,0,8.696,3.891,8.696,8.696"/>
	<path style="fill:#A3CC32;" d="M207.076,154.427c0-4.797,3.907-8.696,8.696-8.696c4.805,0,8.696,3.891,8.696,8.696"/>
</g>
<path style="fill:#7DA81D;" d="M76.682,98.462c-16.093,5.648-28.294,31.074-28.294,43.213c0,12.138,12.201,11.288,28.294,13.43
	V98.462z"/>
<path style="fill:#469315;" d="M76.398,98.462c16.093,5.648,28.278,31.074,28.278,43.213c0,12.138-12.201,11.288-28.278,13.43
	V98.462z"/>
<path style="fill:#825E40;" d="M76.524,181.894c-2.001,0-3.616-1.623-3.616-3.631v-37.754c0-2.001,1.615-3.631,3.616-3.631
	c2.009,0,3.616,1.631,3.616,3.631v37.754C80.14,180.271,78.533,181.894,76.524,181.894z"/>
<g>
	<path style="fill:#BA8660;" d="M89.214,182.792H63.85c-1,0-1.812-0.811-1.812-1.804c0-1.008,0.819-1.812,1.812-1.812h25.372
		c1,0,1.812,0.811,1.812,1.812C91.034,181.981,90.214,182.792,89.214,182.792z"/>
	<path style="fill:#BA8660;" d="M73.696,189.141h-8.373c-1,0-1.804-0.811-1.804-1.804c0-1.016,0.811-1.82,1.804-1.82h8.365
		c1,0,1.804,0.811,1.804,1.82C75.5,188.329,74.697,189.141,73.696,189.141z"/>
	<path style="fill:#BA8660;" d="M87.741,189.141h-8.365c-1,0-1.804-0.811-1.804-1.804c0-1.016,0.811-1.82,1.804-1.82h8.365
		c1,0,1.804,0.811,1.804,1.82C89.545,188.329,88.741,189.141,87.741,189.141z"/>
</g>
<g>
	<path style="fill:#825E40;" d="M77.635,150.118l-7.861-7.861c-0.654-0.67-1.733-0.67-2.395,0c-0.67,0.662-0.67,1.741,0,2.402
		l7.861,7.861L77.635,150.118z"/>
	<path style="fill:#825E40;" d="M75.422,150.118l7.869-7.861c0.662-0.67,1.725-0.67,2.387,0c0.677,0.662,0.677,1.741,0,2.402
		l-7.853,7.861L75.422,150.118z"/>
</g>
<path style="fill:#7DA81D;" d="M31.5,0C15.407,5.648,3.206,31.074,3.206,43.213S15.407,54.5,31.5,56.643V0z"/>
<path style="fill:#469315;" d="M31.224,0c16.085,5.648,28.278,31.074,28.278,43.213S47.301,54.5,31.224,56.643V0z"/>
<path style="fill:#825E40;" d="M31.35,83.432c-1.993,0-3.616-1.623-3.616-3.631V42.047c0-2.001,1.623-3.631,3.616-3.631
	c2.009,0,3.623,1.631,3.623,3.631v37.754C34.974,81.81,33.359,83.432,31.35,83.432z"/>
<g>
	<path style="fill:#BA8660;" d="M44.032,84.33H18.668c-1,0-1.812-0.811-1.812-1.804c0-1.008,0.819-1.812,1.812-1.812h25.364
		c1.008,0,1.82,0.811,1.82,1.812C45.859,83.519,45.04,84.33,44.032,84.33z"/>
	<path style="fill:#BA8660;" d="M28.514,90.679h-8.365c-1,0-1.804-0.811-1.804-1.804c0-1.016,0.811-1.82,1.804-1.82h8.365
		c1,0,1.804,0.811,1.804,1.82C30.326,89.868,29.515,90.679,28.514,90.679z"/>
	<path style="fill:#BA8660;" d="M42.567,90.679h-8.373c-1,0-1.804-0.811-1.804-1.804c0-1.016,0.811-1.82,1.804-1.82h8.373
		c1,0,1.804,0.811,1.804,1.82C44.371,89.868,43.567,90.679,42.567,90.679z"/>
</g>
<g>
	<path style="fill:#825E40;" d="M32.453,51.657l-7.861-7.861c-0.654-0.67-1.733-0.67-2.395,0c-0.67,0.662-0.67,1.741,0,2.402
		l7.861,7.861L32.453,51.657z"/>
	<path style="fill:#825E40;" d="M30.247,51.657l7.869-7.861c0.662-0.67,1.725-0.67,2.395,0c0.662,0.662,0.662,1.741,0,2.402
		l-7.861,7.861L30.247,51.657z"/>
</g>
<path style="fill:#7DA81D;" d="M121.856,0c-16.1,5.648-28.302,31.074-28.302,43.213s12.201,11.288,28.302,13.43V0z"/>
<path style="fill:#469315;" d="M121.588,0c16.077,5.648,28.262,31.074,28.262,43.213s-12.186,11.288-28.262,13.43V0z"/>
<path style="fill:#825E40;" d="M121.698,83.432c-2.001,0-3.616-1.623-3.616-3.631V42.047c0-2.001,1.615-3.631,3.616-3.631
	c2.009,0,3.623,1.631,3.623,3.631v37.754C125.322,81.81,123.707,83.432,121.698,83.432z"/>
<g>
	<path style="fill:#BA8660;" d="M134.388,84.33h-25.364c-1,0-1.812-0.811-1.812-1.804c0-1.008,0.819-1.812,1.812-1.812h25.364
		c1.008,0,1.82,0.811,1.82,1.812C136.208,83.519,135.396,84.33,134.388,84.33z"/>
	<path style="fill:#BA8660;" d="M118.863,90.679h-8.365c-0.993,0-1.804-0.811-1.804-1.804c0-1.016,0.811-1.82,1.804-1.82h8.365
		c1.008,0,1.812,0.811,1.812,1.82C120.682,89.868,119.871,90.679,118.863,90.679z"/>
	<path style="fill:#BA8660;" d="M132.907,90.679h-8.365c-0.985,0-1.804-0.811-1.804-1.804c0-1.016,0.819-1.82,1.804-1.82h8.365
		c1.008,0,1.812,0.811,1.812,1.82C134.727,89.868,133.916,90.679,132.907,90.679z"/>
</g>
<g>
	<path style="fill:#825E40;" d="M122.801,51.657l-7.853-7.861c-0.654-0.67-1.733-0.67-2.395,0c-0.67,0.662-0.67,1.741,0,2.402
		l7.861,7.861L122.801,51.657z"/>
	<path style="fill:#825E40;" d="M120.604,51.657l7.877-7.861c0.662-0.67,1.709-0.67,2.387,0c0.67,0.662,0.67,1.741,0,2.402
		l-7.861,7.861L120.604,51.657z"/>
</g>
<path style="fill:#7DA81D;" d="M421.029,98.462c-16.093,5.648-28.294,31.074-28.294,43.213c0,12.138,12.201,11.288,28.294,13.43
	V98.462z"/>
<path style="fill:#469315;" d="M420.754,98.462c16.093,5.648,28.278,31.074,28.278,43.213c0,12.138-12.201,11.288-28.278,13.43
	V98.462z"/>
<path style="fill:#825E40;" d="M420.88,181.894c-2.001,0-3.616-1.623-3.616-3.631v-37.754c0-2.001,1.615-3.631,3.616-3.631
	c2.009,0,3.631,1.631,3.631,3.631v37.754C424.511,180.271,422.888,181.894,420.88,181.894z"/>
<g>
	<path style="fill:#BA8660;" d="M433.569,182.792h-25.372c-1,0-1.812-0.811-1.812-1.804c0-1.008,0.819-1.812,1.812-1.812h25.372
		c1,0,1.812,0.811,1.812,1.812C435.389,181.981,434.57,182.792,433.569,182.792z"/>
	<path style="fill:#BA8660;" d="M418.052,189.141h-8.365c-1,0-1.804-0.811-1.804-1.804c0-1.016,0.811-1.82,1.804-1.82h8.365
		c1,0,1.804,0.811,1.804,1.82C419.856,188.329,419.044,189.141,418.052,189.141z"/>
	<path style="fill:#BA8660;" d="M432.096,189.141h-8.365c-1,0-1.804-0.811-1.804-1.804c0-1.016,0.811-1.82,1.804-1.82h8.365
		c1,0,1.804,0.811,1.804,1.82C433.9,188.329,433.097,189.141,432.096,189.141z"/>
</g>
<g>
	<path style="fill:#825E40;" d="M421.99,150.118l-7.869-7.861c-0.654-0.67-1.733-0.67-2.395,0c-0.67,0.662-0.67,1.741,0,2.402
		l7.861,7.861L421.99,150.118z"/>
	<path style="fill:#825E40;" d="M419.777,150.118l7.869-7.861c0.662-0.67,1.725-0.67,2.387,0c0.677,0.662,0.677,1.741,0,2.402
		l-7.853,7.861L419.777,150.118z"/>
</g>
<path style="fill:#7DA81D;" d="M375.855,0c-16.093,5.648-28.294,31.074-28.294,43.213s12.201,11.288,28.294,13.43V0z"/>
<path style="fill:#469315;" d="M375.58,0c16.093,5.648,28.278,31.074,28.278,43.213S391.656,54.5,375.58,56.643V0z"/>
<path style="fill:#825E40;" d="M375.706,83.432c-2.001,0-3.616-1.623-3.616-3.631V42.047c0-2.001,1.615-3.631,3.616-3.631
	c2.009,0,3.623,1.631,3.623,3.631v37.754C379.329,81.81,377.706,83.432,375.706,83.432z"/>
<g>
	<path style="fill:#BA8660;" d="M388.395,84.33h-25.372c-1,0-1.812-0.811-1.812-1.804c0-1.008,0.819-1.812,1.812-1.812h25.372
		c1.008,0,1.812,0.811,1.812,1.812C390.207,83.519,389.404,84.33,388.395,84.33z"/>
	<path style="fill:#BA8660;" d="M372.87,90.679h-8.365c-1,0-1.804-0.811-1.804-1.804c0-1.016,0.811-1.82,1.804-1.82h8.365
		c1,0,1.804,0.811,1.804,1.82C374.682,89.868,373.87,90.679,372.87,90.679z"/>
	<path style="fill:#BA8660;" d="M386.914,90.679h-8.365c-1,0-1.804-0.811-1.804-1.804c0-1.016,0.811-1.82,1.804-1.82h8.365
		c1,0,1.804,0.811,1.804,1.82C388.726,89.868,387.915,90.679,386.914,90.679z"/>
</g>
<g>
	<path style="fill:#825E40;" d="M376.808,51.657l-7.861-7.861c-0.654-0.67-1.733-0.67-2.395,0c-0.67,0.662-0.67,1.741,0,2.402
		l7.861,7.861L376.808,51.657z"/>
	<path style="fill:#825E40;" d="M374.603,51.657l7.869-7.861c0.662-0.67,1.725-0.67,2.395,0c0.662,0.662,0.662,1.741,0,2.402
		l-7.861,7.861L374.603,51.657z"/>
</g>
<path style="fill:#7DA81D;" d="M466.211,0c-16.085,5.648-28.302,31.074-28.302,43.213s12.217,11.288,28.302,13.43V0z"/>
<path style="fill:#469315;" d="M465.936,0c16.085,5.648,28.27,31.074,28.27,43.213s-12.201,11.288-28.27,13.43V0z"/>
<path style="fill:#825E40;" d="M466.054,83.432c-2.001,0-3.616-1.623-3.616-3.631V42.047c0-2.001,1.615-3.631,3.616-3.631
	c2.009,0,3.623,1.631,3.623,3.631v37.754C469.677,81.81,468.063,83.432,466.054,83.432z"/>
<g>
	<path style="fill:#BA8660;" d="M478.744,84.33H453.38c-1,0-1.812-0.811-1.812-1.804c0-1.008,0.819-1.812,1.812-1.812h25.364
		c1.008,0,1.82,0.811,1.82,1.812C480.563,83.519,479.752,84.33,478.744,84.33z"/>
	<path style="fill:#BA8660;" d="M463.226,90.679h-8.381c-0.992,0-1.804-0.811-1.804-1.804c0-1.016,0.811-1.82,1.804-1.82h8.373
		c1.008,0,1.804,0.811,1.804,1.82C465.03,89.868,464.234,90.679,463.226,90.679z"/>
	<path style="fill:#BA8660;" d="M477.263,90.679h-8.365c-0.992,0-1.804-0.811-1.804-1.804c0-1.016,0.811-1.82,1.804-1.82h8.365
		c1.008,0,1.812,0.811,1.812,1.82C479.082,89.868,478.271,90.679,477.263,90.679z"/>
</g>
<g>
	<path style="fill:#825E40;" d="M467.165,51.657l-7.853-7.861c-0.662-0.67-1.741-0.67-2.402,0c-0.67,0.662-0.67,1.741,0,2.402
		l7.861,7.861L467.165,51.657z"/>
	<path style="fill:#825E40;" d="M464.959,51.657l7.869-7.861c0.662-0.67,1.717-0.67,2.395,0c0.67,0.662,0.67,1.741,0,2.402
		l-7.861,7.861L464.959,51.657z"/>
</g>
<path style="fill:#7DA81D;" d="M79.502,317.464c-16.093,5.648-28.294,31.074-28.294,43.213c0,12.138,12.201,11.288,28.294,13.43
	V317.464z"/>
<path style="fill:#469315;" d="M79.226,317.464c16.1,5.648,28.278,31.074,28.278,43.213c0,12.138-12.201,11.288-28.278,13.43
	V317.464z"/>
<path style="fill:#825E40;" d="M79.344,400.896c-1.993,0-3.608-1.623-3.608-3.631v-37.754c0-2.001,1.615-3.631,3.608-3.631
	c2.016,0,3.631,1.631,3.631,3.631v37.754C82.968,399.273,81.353,400.896,79.344,400.896z"/>
<g>
	<path style="fill:#BA8660;" d="M92.05,401.802H66.67c-1,0-1.812-0.803-1.812-1.804c0-1.016,0.819-1.82,1.812-1.82H92.05
		c0.985,0,1.804,0.811,1.804,1.82C93.854,400.998,93.034,401.802,92.05,401.802z"/>
	<path style="fill:#BA8660;" d="M76.516,408.143h-8.365c-1.008,0-1.804-0.811-1.804-1.804c0-1.008,0.803-1.812,1.804-1.812h8.365
		c1,0,1.804,0.811,1.804,1.812C78.328,407.339,77.517,408.143,76.516,408.143z"/>
	<path style="fill:#BA8660;" d="M90.561,408.143h-8.365c-1.008,0-1.812-0.811-1.812-1.804c0-1.008,0.811-1.812,1.812-1.812h8.365
		c1,0,1.804,0.811,1.804,1.812C92.373,407.339,91.561,408.143,90.561,408.143z"/>
</g>
<g>
	<path style="fill:#825E40;" d="M80.455,369.128l-7.861-7.853c-0.654-0.677-1.733-0.677-2.395,0c-0.67,0.662-0.67,1.733,0,2.387
		l7.861,7.869L80.455,369.128z"/>
	<path style="fill:#825E40;" d="M78.249,369.128l7.869-7.853c0.67-0.677,1.725-0.677,2.395,0c0.67,0.662,0.67,1.733,0,2.387
		l-7.861,7.869L78.249,369.128z"/>
</g>
<path style="fill:#7DA81D;" d="M34.328,406.733c-16.093,5.648-28.294,31.074-28.294,43.213c0,12.138,12.201,11.288,28.294,13.43
	V406.733z"/>
<path style="fill:#469315;" d="M34.052,406.733c16.093,5.648,28.278,31.074,28.278,43.213c0,12.138-12.201,11.288-28.278,13.43
	C34.052,463.376,34.052,406.733,34.052,406.733z"/>
<path style="fill:#825E40;" d="M34.17,490.165c-2.001,0-3.616-1.623-3.616-3.631V448.78c0-2.001,1.615-3.631,3.616-3.631
	c2.009,0,3.623,1.631,3.623,3.631v37.754C37.793,488.543,36.179,490.165,34.17,490.165z"/>
<g>
	<path style="fill:#BA8660;" d="M46.86,491.071H21.496c-1,0-1.812-0.811-1.812-1.804c0-1.008,0.819-1.812,1.812-1.812h25.372
		c1,0,1.812,0.811,1.812,1.812C48.679,490.26,47.86,491.071,46.86,491.071z"/>
	<path style="fill:#BA8660;" d="M31.342,497.412h-8.373c-1,0-1.804-0.811-1.804-1.804c0-1.008,0.811-1.812,1.804-1.812h8.365
		c1,0,1.804,0.811,1.804,1.812C33.146,496.608,32.343,497.412,31.342,497.412z"/>
	<path style="fill:#BA8660;" d="M45.387,497.412h-8.373c-1,0-1.804-0.811-1.804-1.804c0-1.008,0.811-1.812,1.804-1.812h8.365
		c1,0,1.804,0.811,1.804,1.812C47.191,496.608,46.387,497.412,45.387,497.412z"/>
</g>
<g>
	<path style="fill:#825E40;" d="M35.281,458.398l-7.861-7.861c-0.654-0.67-1.741-0.67-2.395,0c-0.67,0.662-0.67,1.741,0,2.395
		l7.853,7.869L35.281,458.398z"/>
	<path style="fill:#825E40;" d="M33.075,458.398l7.869-7.861c0.662-0.67,1.725-0.67,2.395,0c0.67,0.662,0.67,1.741,0,2.395
		l-7.861,7.869L33.075,458.398z"/>
</g>
<path style="fill:#7DA81D;" d="M124.676,406.733c-16.093,5.648-28.294,31.074-28.294,43.213c0,12.138,12.201,11.288,28.294,13.43
	V406.733z"/>
<path style="fill:#469315;" d="M124.4,406.733c16.093,5.648,28.278,31.074,28.278,43.213c0,12.138-12.201,11.288-28.278,13.43
	V406.733z"/>
<path style="fill:#825E40;" d="M124.526,490.165c-2.001,0-3.616-1.623-3.616-3.631V448.78c0-2.001,1.615-3.631,3.616-3.631
	c2.009,0,3.623,1.631,3.623,3.631v37.754C128.15,488.543,126.535,490.165,124.526,490.165z"/>
<g>
	<path style="fill:#BA8660;" d="M137.216,491.071h-25.372c-1,0-1.812-0.811-1.812-1.804c0-1.008,0.819-1.812,1.812-1.812h25.372
		c1,0,1.812,0.811,1.812,1.812C139.036,490.26,138.216,491.071,137.216,491.071z"/>
	<path style="fill:#BA8660;" d="M121.691,497.412h-8.365c-1,0-1.812-0.811-1.812-1.804c0-1.008,0.819-1.812,1.812-1.812h8.365
		c1,0,1.804,0.811,1.804,1.812C123.494,496.608,122.691,497.412,121.691,497.412z"/>
	<path style="fill:#BA8660;" d="M135.743,497.412h-8.365c-1,0-1.812-0.811-1.812-1.804c0-1.008,0.819-1.812,1.812-1.812h8.365
		c1,0,1.804,0.811,1.804,1.812C137.539,496.608,136.743,497.412,135.743,497.412z"/>
</g>
<g>
	<path style="fill:#825E40;" d="M125.629,458.398l-7.861-7.861c-0.654-0.67-1.733-0.67-2.395,0c-0.67,0.662-0.67,1.741,0,2.395
		l7.853,7.869L125.629,458.398z"/>
	<path style="fill:#825E40;" d="M123.423,458.398l7.869-7.861c0.662-0.67,1.725-0.67,2.395,0c0.67,0.662,0.67,1.741,0,2.395
		l-7.861,7.869L123.423,458.398z"/>
</g>
<path style="fill:#7DA81D;" d="M418.209,317.464c-16.093,5.648-28.294,31.074-28.294,43.213c0,12.138,12.201,11.288,28.294,13.43
	V317.464z"/>
<path style="fill:#469315;" d="M417.934,317.464c16.1,5.648,28.278,31.074,28.278,43.213c0,12.138-12.201,11.288-28.278,13.43
	V317.464z"/>
<path style="fill:#825E40;" d="M418.052,400.896c-1.993,0-3.608-1.623-3.608-3.631v-37.754c0-2.001,1.615-3.631,3.608-3.631
	c2.016,0,3.631,1.631,3.631,3.631v37.754C421.675,399.273,420.061,400.896,418.052,400.896z"/>
<g>
	<path style="fill:#BA8660;" d="M430.757,401.802h-25.379c-1,0-1.812-0.803-1.812-1.804c0-1.016,0.819-1.82,1.812-1.82h25.379
		c0.985,0,1.804,0.811,1.804,1.82C432.561,400.998,431.742,401.802,430.757,401.802z"/>
	<path style="fill:#BA8660;" d="M415.224,408.143h-8.365c-1.008,0-1.804-0.811-1.804-1.804c0-1.008,0.803-1.812,1.804-1.812h8.365
		c1,0,1.804,0.811,1.804,1.812C417.036,407.339,416.224,408.143,415.224,408.143z"/>
	<path style="fill:#BA8660;" d="M429.269,408.143h-8.365c-1.008,0-1.812-0.811-1.812-1.804c0-1.008,0.811-1.812,1.812-1.812h8.365
		c1,0,1.804,0.811,1.804,1.812C431.08,407.339,430.269,408.143,429.269,408.143z"/>
</g>
<g>
	<path style="fill:#825E40;" d="M419.163,369.128l-7.861-7.853c-0.654-0.677-1.733-0.677-2.395,0c-0.67,0.662-0.67,1.733,0,2.387
		l7.861,7.869L419.163,369.128z"/>
	<path style="fill:#825E40;" d="M416.957,369.128l7.869-7.853c0.67-0.677,1.725-0.677,2.395,0c0.67,0.662,0.67,1.733,0,2.387
		l-7.861,7.869L416.957,369.128z"/>
</g>
<path style="fill:#7DA81D;" d="M373.035,406.733c-16.093,5.648-28.294,31.074-28.294,43.213c0,12.138,12.201,11.288,28.294,13.43
	V406.733z"/>
<path style="fill:#469315;" d="M372.76,406.733c16.093,5.648,28.278,31.074,28.278,43.213c0,12.138-12.201,11.288-28.278,13.43
	V406.733z"/>
<path style="fill:#825E40;" d="M372.878,490.165c-2.001,0-3.616-1.623-3.616-3.631V448.78c0-2.001,1.615-3.631,3.616-3.631
	c2.009,0,3.623,1.631,3.623,3.631v37.754C376.501,488.543,374.886,490.165,372.878,490.165z"/>
<g>
	<path style="fill:#BA8660;" d="M385.568,491.071h-25.372c-1,0-1.812-0.811-1.812-1.804c0-1.008,0.819-1.812,1.812-1.812h25.372
		c1,0,1.812,0.811,1.812,1.812C387.387,490.26,386.568,491.071,385.568,491.071z"/>
	<path style="fill:#BA8660;" d="M370.05,497.412h-8.365c-1,0-1.804-0.811-1.804-1.804c0-1.008,0.811-1.812,1.804-1.812h8.365
		c1,0,1.804,0.811,1.804,1.812C371.854,496.608,371.05,497.412,370.05,497.412z"/>
	<path style="fill:#BA8660;" d="M384.095,497.412h-8.365c-1,0-1.804-0.811-1.804-1.804c0-1.008,0.811-1.812,1.804-1.812h8.365
		c1,0,1.804,0.811,1.804,1.812C385.898,496.608,385.095,497.412,384.095,497.412z"/>
</g>
<g>
	<path style="fill:#825E40;" d="M373.988,458.398l-7.861-7.861c-0.654-0.67-1.741-0.67-2.395,0c-0.67,0.662-0.67,1.741,0,2.395
		l7.853,7.869L373.988,458.398z"/>
	<path style="fill:#825E40;" d="M371.783,458.398l7.869-7.861c0.662-0.67,1.725-0.67,2.395,0c0.67,0.662,0.67,1.741,0,2.395
		l-7.861,7.869L371.783,458.398z"/>
</g>
<path style="fill:#7DA81D;" d="M463.384,406.733c-16.093,5.648-28.294,31.074-28.294,43.213c0,12.138,12.201,11.288,28.294,13.43
	V406.733z"/>
<path style="fill:#469315;" d="M463.108,406.733c16.093,5.648,28.278,31.074,28.278,43.213c0,12.138-12.201,11.288-28.278,13.43
	V406.733z"/>
<path style="fill:#825E40;" d="M463.234,490.165c-2.001,0-3.616-1.623-3.616-3.631V448.78c0-2.001,1.615-3.631,3.616-3.631
	c2.009,0,3.623,1.631,3.623,3.631v37.754C466.857,488.543,465.243,490.165,463.234,490.165z"/>
<g>
	<path style="fill:#BA8660;" d="M475.924,491.071h-25.372c-1,0-1.812-0.811-1.812-1.804c0-1.008,0.819-1.812,1.812-1.812h25.372
		c1,0,1.812,0.811,1.812,1.812C477.743,490.26,476.924,491.071,475.924,491.071z"/>
	<path style="fill:#BA8660;" d="M460.398,497.412h-8.365c-1,0-1.812-0.811-1.812-1.804c0-1.008,0.819-1.812,1.812-1.812h8.365
		c1,0,1.804,0.811,1.804,1.812C462.202,496.608,461.399,497.412,460.398,497.412z"/>
	<path style="fill:#BA8660;" d="M474.451,497.412h-8.365c-1,0-1.812-0.811-1.812-1.804c0-1.008,0.819-1.812,1.812-1.812h8.365
		c1,0,1.804,0.811,1.804,1.812C476.247,496.608,475.451,497.412,474.451,497.412z"/>
</g>
<g>
	<path style="fill:#825E40;" d="M464.337,458.398l-7.861-7.861c-0.654-0.67-1.733-0.67-2.395,0c-0.67,0.662-0.67,1.741,0,2.395
		l7.853,7.869L464.337,458.398z"/>
	<path style="fill:#825E40;" d="M462.131,458.398l7.869-7.861c0.662-0.67,1.725-0.67,2.395,0c0.67,0.662,0.67,1.741,0,2.395
		l-7.861,7.869L462.131,458.398z"/>
</g>
<g>
</g>
<g>
</g>
<g>
</g>
<g>
</g>
<g>
</g>
<g>
</g>
<g>
</g>
<g>
</g>
<g>
</g>
<g>
</g>
<g>
</g>
<g>
</g>
<g>
</g>
<g>
</g>
<g>
</g>
</svg>
